<?xml version="1.0" standalone="no"?>
<!DOCTYPE svg PUBLIC "-//W3C//DTD SVG 20010904//EN"
 "http://www.w3.org/TR/2001/REC-SVG-20010904/DTD/svg10.dtd">
<svg version="1.0" xmlns="http://www.w3.org/2000/svg"
 width="540.000000pt" height="360.000000pt" viewBox="0 0 540.000000 360.000000"
 preserveAspectRatio="xMidYMid meet">

<g transform="translate(0.000000,360.000000) scale(0.100000,-0.100000)"
fill="#000000" stroke="none">
<path d="M0 1800 l0 -1800 2700 0 2700 0 0 1800 0 1800 -2700 0 -2700 0 0
-1800z m2540 603 c0 -98 4 -184 9 -191 6 -9 42 44 117 173 59 103 113 189 119
191 5 2 145 3 311 2 l300 -3 -166 -287 c-91 -158 -169 -290 -172 -293 -7 -8
-58 76 -58 95 0 7 47 95 105 195 58 100 105 185 105 188 0 4 -82 7 -183 7
l-183 0 -131 -227 c-73 -126 -138 -236 -146 -247 -12 -17 -18 -10 -70 79 l-57
98 0 148 0 149 -210 0 -210 0 0 -602 c0 -331 2 -599 4 -597 2 2 92 157 201
344 108 187 200 343 203 347 4 4 61 -87 127 -202 66 -115 122 -209 125 -210 3
0 59 94 125 210 66 115 122 209 125 209 6 0 544 -934 548 -951 2 -10 -59 -12
-305 -10 l-308 3 -88 154 c-49 85 -92 155 -96 155 -3 0 -47 -70 -96 -155 l-89
-155 -293 0 -293 0 0 780 0 780 315 0 315 0 0 -177z"/>
<path d="M2245 1448 c-99 -172 -182 -316 -183 -320 -2 -5 81 -7 184 -6 l187 3
92 160 c78 134 91 163 83 180 -38 71 -171 295 -177 295 -3 -1 -87 -141 -186
-312z"/>
<path d="M2837 1610 c-48 -82 -88 -153 -89 -157 -2 -5 39 -82 91 -171 l94
-162 184 0 c109 0 183 4 181 9 -8 23 -363 631 -368 631 -3 0 -45 -67 -93 -150z"/>
</g>
</svg>
