<svg version="1.1" id="Layer_1" xmlns="http://www.w3.org/2000/svg" xmlns:xlink="http://www.w3.org/1999/xlink" x="0px" y="0px"
	 width="100%" viewBox="0 0 653 440" enable-background="new 0 0 653 440" xml:space="preserve">
<path fill="#02052B" opacity="1.000000" stroke="none" 
	d="
M474.000000,441.000000 
	C316.036011,441.000000 158.572021,441.000000 1.054017,441.000000 
	C1.054017,294.402893 1.054017,147.805771 1.054017,1.104319 
	C218.547302,1.104319 436.094666,1.104319 653.821045,1.104319 
	C653.821045,147.666489 653.821045,294.333221 653.821045,441.000000 
	C594.139099,441.000000 534.319580,441.000000 474.000000,441.000000 
M302.583038,179.431671 
	C299.464111,176.240631 296.345184,173.049606 292.829559,169.261002 
	C290.432678,166.165466 287.379974,164.840714 283.638367,166.386932 
	C280.082916,167.856186 279.073486,170.964752 279.143188,174.546631 
	C279.256195,180.353149 279.380432,186.159470 279.273499,192.884384 
	C279.343658,199.584579 279.413849,206.284790 279.254791,213.898544 
	C279.324036,220.931137 279.393311,227.963730 279.241577,235.910416 
	C279.190674,243.054672 279.002411,250.201706 279.145660,257.342072 
	C279.219635,261.030396 277.805145,262.334869 274.168732,262.248016 
	C266.694611,262.069519 259.196747,261.896271 251.740356,262.302338 
	C246.510666,262.587097 245.310226,260.523682 245.344193,255.671539 
	C245.555939,225.426743 245.514252,195.180084 245.520157,164.934052 
	C245.520615,162.625244 245.240021,160.316376 245.241730,157.082443 
	C245.148514,152.719360 245.055298,148.356277 245.172333,143.076660 
	C245.108597,133.383118 245.044861,123.689583 245.214294,113.088585 
	C245.274429,106.263596 245.311035,99.438309 245.400223,92.613693 
	C245.534256,82.358932 244.366470,83.886154 254.075699,83.695358 
	C256.062347,83.656311 258.046112,83.467377 260.941254,83.563965 
	C269.338806,83.594940 277.736908,83.697166 286.133636,83.628090 
	C290.611053,83.591255 294.337769,82.305077 294.978027,76.487183 
	C294.775208,75.732368 294.572388,74.977554 294.318542,73.544617 
	C292.865784,69.814560 289.742645,69.033936 286.232086,69.032135 
	C270.789917,69.024239 255.347260,68.972916 239.905762,69.079765 
	C232.927277,69.128052 230.594452,71.885910 230.810486,79.789856 
	C230.912369,89.858307 231.014252,99.926758 230.916519,110.915115 
	C230.985825,120.272392 231.055130,129.629669 230.913635,139.903976 
	C230.954742,145.290863 230.995865,150.677750 230.815628,156.830750 
	C230.898315,164.537308 230.980988,172.243881 230.922836,180.856110 
	C230.990814,183.900772 231.058792,186.945419 230.931259,190.911133 
	C230.987213,198.270401 231.043152,205.629654 230.910721,213.911621 
	C230.887421,231.905792 230.815384,249.900116 230.868912,267.894043 
	C230.886230,273.717773 233.091324,276.570007 238.209473,276.632599 
	C254.201660,276.828125 270.198395,276.777344 286.191986,276.651031 
	C290.694733,276.615448 293.491241,273.891510 293.566467,269.432648 
	C293.720703,260.283966 293.456543,251.128220 293.559967,241.059723 
	C293.483887,233.702896 293.407806,226.346085 293.542969,218.074631 
	C293.469879,211.034317 293.396759,203.994019 293.545044,196.164719 
	C293.678925,195.081223 293.812805,193.997711 294.435730,193.227966 
	C294.941620,193.509781 295.447540,193.791595 296.294739,194.640457 
	C298.546783,197.045990 300.798798,199.451523 303.361115,202.449020 
	C305.211823,204.354309 307.062561,206.259598 309.207153,208.760666 
	C324.806305,226.091187 340.405487,243.421707 356.925659,261.775482 
	C348.355194,262.072205 341.573700,263.598877 336.313080,256.155365 
	C331.829285,249.810959 325.946228,244.449875 320.633545,238.698715 
	C316.692078,234.431946 312.751495,233.782028 309.333954,236.716400 
	C305.751190,239.792633 305.755432,244.223022 309.615112,248.559311 
	C316.924774,256.771515 324.160065,265.067291 331.854797,272.907776 
	C333.930969,275.023254 337.502991,276.612427 340.465057,276.746277 
	C350.772980,277.212006 361.114502,276.937592 371.443268,276.934753 
	C375.210571,276.933685 378.951141,276.709259 380.758759,272.620422 
	C382.610870,268.430847 380.529175,265.318909 377.790955,262.329102 
	C368.677643,252.378662 359.679169,242.322952 350.558594,232.379196 
	C339.081909,219.866638 327.528290,207.424622 315.773865,194.349213 
	C314.451019,192.936172 313.128204,191.523117 311.555756,189.498154 
	C308.732666,186.560196 305.909576,183.622238 303.042633,180.333878 
	C303.042633,180.333878 302.888123,180.014618 302.583038,179.431671 
M335.238281,127.023140 
	C334.467590,127.626884 333.696899,128.230621 332.312164,129.048462 
	C330.805145,130.201218 329.298126,131.353989 327.142883,132.695877 
	C325.760529,133.793777 324.378204,134.891678 322.352844,136.166702 
	C320.586548,137.516342 318.820282,138.865982 316.442688,140.403519 
	C314.941895,141.567215 313.441101,142.730911 311.279724,144.104385 
	C307.414062,147.418655 304.063293,147.189926 300.979584,142.905365 
	C300.061890,141.630310 298.455078,140.851227 297.478577,139.327591 
	C297.599579,139.166092 297.720612,139.004593 298.301941,138.605194 
	C298.614166,138.197678 298.926392,137.790176 299.245758,137.152878 
	C299.245758,137.152878 299.035004,137.061035 299.741821,137.021545 
	C309.164001,130.354843 318.586212,123.688148 328.671753,116.829102 
	C336.464478,111.268341 344.257233,105.707581 352.716766,99.942062 
	C360.777344,94.329987 368.836273,88.715553 376.899384,83.107086 
	C379.984985,80.960846 382.214874,78.283562 380.955048,74.300522 
	C379.655212,70.191063 376.314850,69.012672 372.292236,69.023888 
	C358.971619,69.061035 345.646179,68.845734 332.333893,69.179466 
	C329.456787,69.251595 326.626984,71.210274 323.103516,72.575867 
	C314.871643,78.303444 306.639801,84.031029 297.782776,89.961502 
	C290.133148,95.284874 282.483490,100.608253 274.179993,106.125809 
	C268.699066,109.848648 263.130066,113.449997 257.767609,117.336311 
	C254.087646,120.003281 253.355515,124.036453 255.484543,127.389847 
	C257.798737,131.034927 261.808777,131.979813 265.918640,129.267441 
	C272.389801,124.996689 278.629608,120.375473 285.627380,115.725349 
	C293.459320,110.249672 301.291290,104.773994 309.800812,99.092880 
	C317.192993,93.976257 324.585175,88.859627 332.915070,83.751740 
	C338.188477,83.751740 343.461914,83.751740 348.735321,83.751740 
	C348.763824,84.131096 348.792328,84.510452 348.820831,84.889801 
	C347.094696,86.348274 345.368530,87.806740 342.983185,89.532036 
	C334.438629,95.605804 325.894104,101.679581 316.729523,107.952576 
	C308.059998,114.077148 299.390503,120.201714 290.046265,126.589493 
	C279.661438,133.974564 269.276581,141.359619 258.309387,148.952454 
	C257.468658,149.827988 256.627960,150.703522 255.298141,151.904663 
	C255.125732,152.633545 254.953323,153.362427 254.512146,154.980865 
	C254.573441,166.655014 254.634735,178.329178 254.449432,190.911606 
	C254.532562,198.953247 254.615692,206.994904 254.437363,215.935226 
	C254.399323,225.927490 254.276199,235.920486 254.361984,245.911682 
	C254.400314,250.375183 257.789276,253.886185 261.580109,253.881531 
	C265.766968,253.876389 268.714264,250.888000 268.756866,245.980042 
	C268.829071,237.662643 268.602051,229.342651 268.730194,220.108154 
	C268.652588,211.410385 268.574982,202.712601 268.728973,193.101593 
	C268.893280,181.541138 269.057617,169.980682 269.891632,158.199036 
	C275.265839,154.631866 280.640076,151.064697 286.312714,148.149292 
	C288.809265,150.837997 291.305817,153.526703 294.208740,156.734360 
	C296.132324,158.836060 298.055908,160.937759 300.303345,163.618454 
	C302.553192,166.026749 304.803040,168.435043 307.334106,171.405624 
	C308.224182,172.269806 309.114227,173.133972 310.289368,174.603119 
	C312.869354,177.373215 315.449341,180.143295 318.282532,183.457245 
	C318.876129,183.967377 319.469757,184.477493 320.305054,185.591553 
	C322.071533,187.432373 323.838013,189.273178 325.877655,191.755432 
	C339.593811,206.939407 353.291138,222.140442 367.031982,237.302017 
	C378.092529,249.506119 389.151428,261.712646 400.328064,273.809967 
	C403.749939,277.513733 408.115234,277.591492 411.347778,274.477600 
	C414.115967,271.810913 414.022003,267.885468 411.071960,264.153442 
	C410.454071,263.371735 409.758606,262.650482 409.087402,261.911804 
	C392.529114,243.688278 376.030060,225.410370 359.382477,207.268738 
	C351.765869,198.968582 343.856293,190.937256 335.834351,182.174820 
	C333.921783,180.013718 332.009247,177.852615 329.943268,175.121994 
	C329.252258,174.437897 328.561249,173.753799 327.625671,172.449951 
	C325.179108,169.910492 322.732513,167.371017 320.058472,164.248886 
	C319.332672,163.512695 318.606842,162.776505 317.618622,161.428894 
	C316.953857,160.271179 316.289093,159.113464 316.265442,157.729187 
	C317.492493,156.784195 318.719574,155.839203 320.520691,154.670364 
	C321.776062,153.697983 323.031433,152.725586 324.935638,151.523483 
	C326.669159,150.239197 328.402679,148.954926 330.818970,147.430298 
	C332.742310,146.047302 334.665649,144.664307 337.194244,143.069092 
	C338.923706,141.784485 340.653137,140.499878 342.922638,139.026794 
	C343.314270,138.423203 343.705902,137.819595 344.802002,137.156906 
	C346.512085,136.046814 348.222137,134.936722 350.587708,133.653046 
	C373.281281,117.647568 395.979034,101.647957 418.655518,85.618340 
	C419.726990,84.860954 421.269165,83.953781 421.453064,82.914757 
	C421.938324,80.173035 422.875122,76.582527 421.600830,74.718948 
	C420.323273,72.850586 416.637543,72.198662 413.914673,71.920517 
	C412.433594,71.769218 410.663940,73.367096 409.188202,74.408142 
	C396.143372,83.610420 383.110779,92.830521 370.124420,102.115005 
	C360.398254,109.068596 350.745605,116.124931 340.431610,123.299057 
	C338.895386,124.507957 337.359131,125.716850 335.238281,127.023140 
M370.708313,361.809204 
	C371.921967,359.872894 373.345032,358.034882 374.308838,355.981323 
	C376.878448,350.506378 379.250519,344.938721 381.701080,339.407898 
	C382.143738,339.497162 382.586395,339.586456 383.029053,339.675720 
	C383.112579,341.391968 383.251343,343.107697 383.268860,344.824615 
	C383.314819,349.319824 383.065887,353.837463 383.469910,358.297699 
	C383.590576,359.629669 385.479584,360.801483 386.558350,362.046661 
	C387.700897,360.870789 389.814606,359.712860 389.836700,358.516296 
	C390.073364,345.700531 390.056976,332.877411 389.851532,320.060455 
	C389.831787,318.830048 388.279877,317.066437 387.045837,316.606964 
	C386.206421,316.294464 384.205231,317.535553 383.557404,318.592834 
	C382.091187,320.985748 381.130127,323.690002 379.982971,326.276215 
	C376.634277,333.825592 373.295074,341.379181 369.465881,350.029572 
	C368.116241,347.319275 367.265137,345.764252 366.550476,344.148865 
	C362.980438,336.078918 359.563232,327.937836 355.796051,319.961670 
	C355.081757,318.449310 353.029572,317.568817 351.594696,316.396759 
	C350.623871,318.106232 348.863037,319.793060 348.813324,321.528931 
	C348.536835,331.178711 348.674469,340.840363 348.673096,350.497955 
	C348.672760,352.829071 348.251221,355.273865 348.826111,357.454773 
	C349.273529,359.152008 350.967865,360.520508 352.108063,362.035126 
	C353.198456,360.463745 355.017761,358.984711 355.231018,357.302124 
	C355.708740,353.532440 355.345978,349.660797 355.409576,345.832092 
	C355.440399,343.976044 355.660522,342.123138 355.794922,340.268829 
	C356.256439,340.191589 356.717926,340.114319 357.179413,340.037048 
	C359.840851,346.021027 362.312012,352.101929 365.280945,357.929230 
	C366.158875,359.652405 368.440887,360.660248 370.708313,361.809204 
M164.917877,347.466736 
	C164.940521,351.125946 164.676712,354.821655 165.135956,358.425232 
	C165.304321,359.746277 167.185501,360.849030 168.285339,362.051331 
	C169.412643,360.843781 171.250732,359.773926 171.516968,358.399536 
	C172.045593,355.670410 171.719650,352.773560 171.725800,349.945953 
	C171.735687,345.404999 171.728455,340.863983 171.728455,336.322968 
	C172.185486,336.229462 172.642532,336.135956 173.099564,336.042450 
	C173.926605,337.356445 174.819931,338.633881 175.569305,339.990753 
	C178.946686,346.106018 182.140579,352.329315 185.729980,358.316193 
	C186.684418,359.908173 188.807144,360.799744 190.393478,362.012878 
	C191.365845,360.142914 193.131500,358.293030 193.179443,356.399658 
	C193.453079,345.593689 193.390778,334.776581 193.272720,323.965088 
	C193.240860,321.047333 194.456955,316.510468 189.789200,316.594727 
	C185.201813,316.677551 186.532654,321.204437 186.450134,324.120056 
	C186.279236,330.158417 186.398605,336.205048 186.398605,342.248260 
	C185.959549,342.340759 185.520477,342.433258 185.081421,342.525726 
	C184.247955,341.213074 183.344101,339.939301 182.593155,338.581024 
	C179.212982,332.467133 176.045914,326.225861 172.413971,320.266998 
	C171.404739,318.611176 169.064148,317.766846 167.334366,316.550232 
	C166.530106,318.374481 165.089325,320.178741 165.031403,322.026398 
	C164.776123,330.169617 164.919495,338.325348 164.917877,347.466736 
M579.719299,338.654510 
	C576.448120,332.667175 573.358704,326.568420 569.797668,320.758759 
	C568.691467,318.953979 566.306335,317.933136 564.506653,316.553436 
	C563.693604,318.545441 562.266663,320.510925 562.179321,322.534241 
	C561.885498,329.345276 562.065979,336.176910 562.069336,343.000641 
	C562.071777,347.993561 561.830505,353.007446 562.244873,357.966309 
	C562.364746,359.400604 564.375549,360.676971 565.519470,362.025696 
	C566.599243,360.769348 568.299011,359.652161 568.619263,358.225342 
	C569.153687,355.844177 568.820679,353.264984 568.825989,350.769104 
	C568.836670,345.777069 568.829224,340.784973 568.829224,335.792908 
	C569.312500,335.722626 569.795776,335.652344 570.279053,335.582062 
	C574.019836,342.393127 577.663879,349.260132 581.551270,355.986450 
	C583.010742,358.511749 583.712524,363.193695 587.702637,361.589844 
	C589.392090,360.910736 590.124878,356.378021 590.245667,353.552094 
	C590.579285,345.744019 590.364624,337.912354 590.359619,330.090027 
	C590.357605,326.927948 590.687561,323.707794 590.177490,320.628174 
	C589.920837,319.078918 588.122986,317.784912 587.022095,316.375458 
	C585.868652,317.757263 583.825317,319.074341 583.719421,320.532288 
	C583.310181,326.162384 583.545715,331.837708 583.482178,337.495514 
	C583.463440,339.168152 583.251038,340.838593 583.024048,343.906769 
	C581.459229,341.467773 580.767578,340.389679 579.719299,338.654510 
M488.867462,320.656738 
	C482.153870,313.751343 473.723114,316.314484 465.794342,316.780029 
	C464.779724,316.839600 463.164001,319.765198 463.133453,321.387756 
	C462.907990,333.347229 463.006134,345.312988 463.022064,357.276764 
	C463.026398,360.524475 464.656555,362.178711 467.949463,362.160950 
	C471.272583,362.143036 474.596924,362.219574 477.918976,362.158447 
	C486.383118,362.002716 491.855164,356.591370 492.043945,348.038300 
	C492.175934,342.059265 492.365540,336.054626 491.951385,330.101654 
	C491.742218,327.095490 490.249634,324.178650 488.867462,320.656738 
M213.582199,346.487823 
	C213.595184,350.646240 213.353500,354.830200 213.766632,358.948486 
	C213.901535,360.293243 215.741714,361.466919 216.802002,362.718842 
	C217.931992,361.511627 219.641891,360.472656 220.052750,359.056763 
	C220.633682,357.054779 220.233902,354.773773 220.290237,352.613007 
	C220.575287,341.678680 217.951645,342.729980 230.972321,342.639984 
	C234.018600,342.618958 235.086319,343.847748 235.001114,346.803802 
	C234.881424,350.955841 234.778061,355.148071 235.258347,359.254028 
	C235.407013,360.524994 237.478699,361.571014 238.669937,362.720032 
	C239.716232,361.586975 241.288788,360.609741 241.681610,359.283173 
	C242.227905,357.438354 241.923584,355.331757 241.925171,353.337158 
	C241.933624,342.691071 241.945404,332.044922 241.904663,321.398987 
	C241.895035,318.880127 241.970963,315.941010 238.353821,316.017548 
	C234.736420,316.094025 235.066025,319.084015 234.982208,321.563660 
	C234.931656,323.059113 234.967560,324.557556 234.967087,326.054657 
	C234.963608,336.909332 234.969330,336.834595 223.838577,336.011047 
	C221.306961,335.823730 220.240982,334.926514 220.287003,332.411346 
	C220.356995,328.586945 220.645538,324.710175 220.122940,320.955658 
	C219.871017,319.145752 217.979965,317.563995 216.831116,315.878937 
	C215.748962,317.598907 213.804565,319.283447 213.732208,321.044952 
	C213.397934,329.182129 213.584457,337.340698 213.582199,346.487823 
M70.486443,331.114838 
	C70.448654,327.126190 70.690773,323.103088 70.206818,319.169312 
	C70.056686,317.949066 67.935555,316.971313 66.716789,315.882538 
	C65.760086,317.030304 63.988506,318.166016 63.971291,319.327698 
	C63.774254,332.625275 63.771091,345.927948 63.969288,359.225433 
	C63.986843,360.403198 65.781494,361.554474 66.750793,362.718018 
	C67.958954,361.593079 69.907074,360.639740 70.216377,359.306274 
	C70.803612,356.774506 70.149933,353.974823 70.580978,351.381012 
	C70.969078,349.045715 72.119148,346.837006 72.933136,344.572449 
	C73.455299,344.617371 73.977463,344.662262 74.499626,344.707153 
	C78.034195,349.890900 81.392326,355.211243 85.226540,360.162964 
	C86.192841,361.410919 88.682449,361.479340 90.472031,362.089783 
	C90.504059,360.185364 91.260429,357.856293 90.437714,356.452972 
	C87.501381,351.444336 84.183830,346.634064 80.700424,341.980865 
	C78.636749,339.224152 78.698029,337.192291 80.920204,334.558014 
	C84.452675,330.370483 87.772064,325.973083 90.797859,321.410004 
	C91.529282,320.306976 90.759430,318.208405 90.679939,316.567657 
	C89.039276,316.804840 87.153847,316.622559 85.826668,317.397003 
	C84.494987,318.174042 83.717178,319.902893 82.701469,321.218353 
	C79.116028,325.861877 75.532639,330.506958 71.222359,336.092377 
	C70.819824,333.821716 70.658455,332.911469 70.486443,331.114838 
M414.610199,344.849243 
	C413.514221,348.337372 412.364258,351.809692 411.339996,355.318756 
	C410.571136,357.952759 408.848297,361.280182 412.814301,362.465454 
	C416.428131,363.545532 416.791504,359.956299 417.793518,357.584198 
	C418.488159,355.939758 419.130890,353.128448 420.140808,352.965088 
	C424.017120,352.338165 428.127441,352.052490 431.944824,352.755707 
	C433.316040,353.008362 433.891235,356.577850 435.224457,358.333862 
	C436.463226,359.965485 438.411713,362.529053 439.725037,362.347595 
	C443.169891,361.871490 442.429535,358.849304 441.664001,356.389648 
	C437.911011,344.330627 434.217651,332.251068 430.236694,320.267273 
	C429.671509,318.565857 427.646240,317.349518 426.296692,315.908630 
	C424.955719,317.368835 422.978668,318.608521 422.382782,320.327118 
	C419.661865,328.174316 417.328583,336.155914 414.610199,344.849243 
M268.789886,336.952118 
	C266.761536,343.456482 264.518433,349.906464 262.847809,356.501434 
	C262.400909,358.265778 263.128540,361.681671 264.311523,362.242950 
	C267.462494,363.737854 268.404053,360.740540 269.232635,358.335297 
	C269.665558,357.078644 269.934967,355.742737 270.535126,354.574615 
	C270.949890,353.767273 271.779297,352.626740 272.466248,352.596130 
	C276.264648,352.426849 280.243744,351.923035 283.805176,352.870758 
	C285.342743,353.279968 285.761414,357.097076 287.182678,358.996155 
	C288.288727,360.474030 290.160187,361.379028 291.691467,362.538635 
	C292.329468,360.731049 293.894257,358.654236 293.459656,357.158234 
	C289.797882,344.553467 285.842072,332.031433 281.756012,319.556183 
	C281.280334,318.103882 279.281982,315.962036 278.330811,316.125488 
	C276.812592,316.386444 274.917236,318.064911 274.347351,319.582001 
	C272.305267,325.018341 270.752899,330.638611 268.789886,336.952118 
M541.679932,359.250946 
	C537.686584,346.211823 533.785461,333.142822 529.586365,320.170288 
	C529.043823,318.494110 526.959656,317.316956 525.589600,315.908661 
	C524.267517,317.396973 522.302307,318.672119 521.726868,320.407959 
	C517.801147,332.250763 514.166504,344.190094 510.443237,356.099915 
	C510.244934,356.734283 509.801941,357.482239 509.978210,358.007874 
	C510.501587,359.568512 511.277679,361.044434 511.955017,362.553528 
	C513.383850,361.740631 515.220764,361.237335 516.134155,360.033356 
	C517.182739,358.651215 517.172791,356.507111 518.080017,354.962708 
	C518.728210,353.859253 520.082886,352.543579 521.204712,352.462494 
	C524.663208,352.212433 528.455627,351.732147 531.529419,352.896271 
	C533.268799,353.555054 533.876221,357.252838 534.952332,359.600708 
	C536.760376,363.545715 538.714905,363.671295 541.679932,359.250946 
M113.751747,354.883942 
	C113.164886,357.631378 110.755943,361.197632 115.099785,362.449799 
	C118.973541,363.566467 119.557938,359.651062 120.082733,357.045074 
	C120.939049,352.792908 123.466698,352.037354 127.281624,352.218628 
	C131.712326,352.429138 136.357666,351.270599 137.471451,357.878418 
	C137.771713,359.659637 140.689987,362.538025 141.976730,362.324371 
	C145.747894,361.698181 144.591461,358.485443 143.793961,355.920959 
	C140.138184,344.165253 136.560440,332.382812 132.663193,320.707245 
	C132.042435,318.847534 129.936218,317.483704 128.516754,315.890594 
	C127.139534,317.525513 125.120689,318.945984 124.490692,320.830688 
	C120.799889,331.872162 117.433754,343.022186 113.751747,354.883942 
z"/>
<path fill="#177FB1" opacity="1.000000" stroke="none" 
	d="
M316.007843,194.952164 
	C327.528290,207.424622 339.081909,219.866638 350.558594,232.379196 
	C359.679169,242.322952 368.677643,252.378662 377.790955,262.329102 
	C380.529175,265.318909 382.610870,268.430847 380.758759,272.620422 
	C378.951141,276.709259 375.210571,276.933685 371.443268,276.934753 
	C361.114502,276.937592 350.772980,277.212006 340.465057,276.746277 
	C337.502991,276.612427 333.930969,275.023254 331.854797,272.907776 
	C324.160065,265.067291 316.924774,256.771515 309.615112,248.559311 
	C305.755432,244.223022 305.751190,239.792633 309.333954,236.716400 
	C312.751495,233.782028 316.692078,234.431946 320.633545,238.698715 
	C325.946228,244.449875 331.829285,249.810959 336.313080,256.155365 
	C341.573700,263.598877 348.355194,262.072205 356.925659,261.775482 
	C340.405487,243.421707 324.806305,226.091187 309.165466,208.113205 
	C311.418488,203.294556 313.713165,199.123367 316.007843,194.952164 
z"/>
<path fill="#266DA3" opacity="1.000000" stroke="none" 
	d="
M293.364624,241.975388 
	C293.456543,251.128220 293.720703,260.283966 293.566467,269.432648 
	C293.491241,273.891510 290.694733,276.615448 286.191986,276.651031 
	C270.198395,276.777344 254.201660,276.828125 238.209473,276.632599 
	C233.091324,276.570007 230.886230,273.717773 230.868912,267.894043 
	C230.815384,249.900116 230.887421,231.905792 231.370300,213.498383 
	C233.672440,213.785355 235.555969,214.394669 237.349945,215.202759 
	C242.851288,217.680847 243.915710,217.027863 243.976089,210.816101 
	C244.030609,205.204941 243.981491,199.592773 243.981934,193.514404 
	C243.991135,185.370255 243.996475,177.692749 244.007629,169.558533 
	C244.372299,165.403732 244.731201,161.705627 245.090088,158.007538 
	C245.240021,160.316376 245.520615,162.625244 245.520157,164.934052 
	C245.514252,195.180084 245.555939,225.426743 245.344193,255.671539 
	C245.310226,260.523682 246.510666,262.587097 251.740356,262.302338 
	C259.196747,261.896271 266.694611,262.069519 274.168732,262.248016 
	C277.805145,262.334869 279.219635,261.030396 279.145660,257.342072 
	C279.002411,250.201706 279.190674,243.054672 279.644562,235.577652 
	C284.486572,237.488388 288.925598,239.731888 293.364624,241.975388 
z"/>
<path fill="#07AFC7" opacity="1.000000" stroke="none" 
	d="
M336.079559,182.784012 
	C343.856293,190.937256 351.765869,198.968582 359.382477,207.268738 
	C376.030060,225.410370 392.529114,243.688278 409.087402,261.911804 
	C409.758606,262.650482 410.454071,263.371735 411.071960,264.153442 
	C414.022003,267.885468 414.115967,271.810913 411.347778,274.477600 
	C408.115234,277.591492 403.749939,277.513733 400.328064,273.809967 
	C389.151428,261.712646 378.092529,249.506119 367.031982,237.302017 
	C353.291138,222.140442 339.593811,206.939407 326.096344,191.333710 
	C329.569885,188.202652 332.824707,185.493332 336.079559,182.784012 
z"/>
<path fill="#07AFC7" opacity="1.000000" stroke="none" 
	d="
M341.060211,123.135513 
	C350.745605,116.124931 360.398254,109.068596 370.124420,102.115005 
	C383.110779,92.830521 396.143372,83.610420 409.188202,74.408142 
	C410.663940,73.367096 412.433594,71.769218 413.914673,71.920517 
	C416.637543,72.198662 420.323273,72.850586 421.600830,74.718948 
	C422.875122,76.582527 421.938324,80.173035 421.453064,82.914757 
	C421.269165,83.953781 419.726990,84.860954 418.655518,85.618340 
	C395.979034,101.647957 373.281281,117.647568 349.993225,133.560730 
	C346.619232,130.024124 343.839722,126.579819 341.060211,123.135513 
z"/>
<path fill="#07A9C2" opacity="1.000000" stroke="none" 
	d="
M370.393890,361.902527 
	C368.440887,360.660248 366.158875,359.652405 365.280945,357.929230 
	C362.312012,352.101929 359.840851,346.021027 357.179413,340.037048 
	C356.717926,340.114319 356.256439,340.191589 355.794922,340.268829 
	C355.660522,342.123138 355.440399,343.976044 355.409576,345.832092 
	C355.345978,349.660797 355.708740,353.532440 355.231018,357.302124 
	C355.017761,358.984711 353.198456,360.463745 352.108032,362.035126 
	C350.967865,360.520508 349.273529,359.152008 348.826111,357.454773 
	C348.251221,355.273865 348.672760,352.829071 348.673096,350.497955 
	C348.674469,340.840363 348.536835,331.178711 348.813324,321.528931 
	C348.863037,319.793060 350.623871,318.106232 351.594696,316.396759 
	C353.029572,317.568817 355.081757,318.449310 355.796051,319.961670 
	C359.563232,327.937836 362.980438,336.078918 366.550476,344.148865 
	C367.265137,345.764252 368.116241,347.319275 369.465881,350.029572 
	C373.295074,341.379181 376.634277,333.825592 379.982971,326.276215 
	C381.130127,323.690002 382.091187,320.985748 383.557404,318.592834 
	C384.205231,317.535553 386.206421,316.294464 387.045837,316.606964 
	C388.279877,317.066437 389.831787,318.830048 389.851532,320.060455 
	C390.056976,332.877411 390.073364,345.700531 389.836700,358.516296 
	C389.814606,359.712860 387.700897,360.870789 386.558350,362.046692 
	C385.479584,360.801483 383.590576,359.629669 383.469910,358.297699 
	C383.065887,353.837463 383.314819,349.319824 383.268860,344.824615 
	C383.251343,343.107697 383.112579,341.391968 383.029053,339.675720 
	C382.586395,339.586456 382.143738,339.497162 381.701080,339.407898 
	C379.250519,344.938721 376.878448,350.506378 374.308838,355.981323 
	C373.345032,358.034882 371.921967,359.872894 370.393890,361.902527 
z"/>
<path fill="#276EA5" opacity="1.000000" stroke="none" 
	d="
M323.775391,72.299988 
	C326.626984,71.210274 329.456787,69.251595 332.333893,69.179466 
	C345.646179,68.845734 358.971619,69.061035 372.292236,69.023888 
	C376.314850,69.012672 379.655212,70.191063 380.955048,74.300522 
	C382.214874,78.283562 379.984985,80.960846 376.899384,83.107086 
	C368.836273,88.715553 360.777344,94.329987 352.325256,99.683792 
	C349.169922,96.038757 346.406158,92.651985 343.642395,89.265213 
	C345.368530,87.806740 347.094696,86.348274 348.820831,84.889801 
	C348.792328,84.510452 348.763824,84.131096 348.735321,83.751740 
	C343.461914,83.751740 338.188477,83.751740 332.393311,83.410797 
	C329.172852,79.479897 326.474121,75.889938 323.775391,72.299988 
z"/>
<path fill="#06A7C0" opacity="1.000000" stroke="none" 
	d="
M164.918182,346.971619 
	C164.919495,338.325348 164.776123,330.169617 165.031403,322.026398 
	C165.089325,320.178741 166.530106,318.374481 167.334351,316.550232 
	C169.064148,317.766846 171.404739,318.611176 172.413971,320.266998 
	C176.045914,326.225861 179.212982,332.467133 182.593155,338.581024 
	C183.344101,339.939301 184.247955,341.213074 185.081421,342.525726 
	C185.520477,342.433258 185.959549,342.340759 186.398605,342.248260 
	C186.398605,336.205048 186.279236,330.158417 186.450134,324.120056 
	C186.532654,321.204437 185.201813,316.677551 189.789200,316.594727 
	C194.456955,316.510468 193.240860,321.047333 193.272720,323.965088 
	C193.390778,334.776581 193.453079,345.593689 193.179443,356.399658 
	C193.131500,358.293030 191.365845,360.142914 190.393478,362.012878 
	C188.807144,360.799744 186.684418,359.908173 185.729980,358.316193 
	C182.140579,352.329315 178.946686,346.106018 175.569305,339.990753 
	C174.819931,338.633881 173.926605,337.356445 173.099564,336.042450 
	C172.642532,336.135956 172.185486,336.229462 171.728455,336.322968 
	C171.728455,340.863983 171.735687,345.404999 171.725800,349.945953 
	C171.719650,352.773560 172.045593,355.670410 171.516968,358.399536 
	C171.250732,359.773926 169.412643,360.843781 168.285339,362.051331 
	C167.185501,360.849030 165.304321,359.746277 165.135956,358.425232 
	C164.676712,354.821655 164.940521,351.125946 164.918182,346.971619 
z"/>
<path fill="#07AAC3" opacity="1.000000" stroke="none" 
	d="
M579.897583,338.983032 
	C580.767578,340.389679 581.459229,341.467773 583.024048,343.906769 
	C583.251038,340.838593 583.463440,339.168152 583.482178,337.495514 
	C583.545715,331.837708 583.310181,326.162384 583.719421,320.532288 
	C583.825317,319.074341 585.868652,317.757263 587.022095,316.375458 
	C588.122986,317.784912 589.920837,319.078918 590.177490,320.628174 
	C590.687561,323.707794 590.357605,326.927948 590.359619,330.090027 
	C590.364624,337.912354 590.579285,345.744019 590.245667,353.552094 
	C590.124878,356.378021 589.392090,360.910736 587.702637,361.589844 
	C583.712524,363.193695 583.010742,358.511749 581.551270,355.986450 
	C577.663879,349.260132 574.019836,342.393127 570.279053,335.582062 
	C569.795776,335.652344 569.312500,335.722626 568.829224,335.792908 
	C568.829224,340.784973 568.836670,345.777069 568.825989,350.769104 
	C568.820679,353.264984 569.153687,355.844177 568.619263,358.225342 
	C568.299011,359.652161 566.599243,360.769348 565.519470,362.025696 
	C564.375549,360.676971 562.364746,359.400604 562.244873,357.966309 
	C561.830505,353.007446 562.071777,347.993561 562.069336,343.000641 
	C562.065979,336.176910 561.885498,329.345276 562.179321,322.534241 
	C562.266663,320.510925 563.693604,318.545441 564.506653,316.553436 
	C566.306335,317.933136 568.691467,318.953979 569.797668,320.758759 
	C573.358704,326.568420 576.448120,332.667175 579.897583,338.983032 
z"/>
<path fill="#0CA8C5" opacity="1.000000" stroke="none" 
	d="
M230.998932,78.998047 
	C230.594452,71.885910 232.927277,69.128052 239.905762,69.079765 
	C255.347260,68.972916 270.789917,69.024239 286.232086,69.032135 
	C289.742645,69.033936 292.865784,69.814560 294.317017,74.228302 
	C294.454681,75.577019 294.593933,76.242043 294.733185,76.907066 
	C294.337769,82.305077 290.611053,83.591255 286.133636,83.628090 
	C277.736908,83.697166 269.338806,83.594940 260.209961,83.226669 
	C258.040405,82.598907 256.578217,81.972588 255.167892,82.073250 
	C246.891159,82.663986 238.711044,82.748482 230.998932,78.998047 
z"/>
<path fill="#06A5BF" opacity="1.000000" stroke="none" 
	d="
M489.102417,320.939087 
	C490.249634,324.178650 491.742218,327.095490 491.951385,330.101654 
	C492.365540,336.054626 492.175934,342.059265 492.043945,348.038300 
	C491.855164,356.591370 486.383118,362.002716 477.918976,362.158447 
	C474.596924,362.219574 471.272583,362.143036 467.949463,362.160950 
	C464.656555,362.178711 463.026398,360.524475 463.022064,357.276764 
	C463.006134,345.312988 462.907990,333.347229 463.133453,321.387756 
	C463.164001,319.765198 464.779724,316.839600 465.794342,316.780029 
	C473.723114,316.314484 482.153870,313.751343 489.102417,320.939087 
M471.692963,355.176422 
	C473.855560,355.218658 476.018036,355.282837 478.180817,355.298584 
	C482.656525,355.331146 485.075836,353.022705 485.170532,348.621857 
	C485.310242,342.131378 485.308258,335.634003 485.183655,329.143066 
	C485.106781,325.138489 482.919830,323.054504 478.807220,323.159454 
	C477.143219,323.201965 475.468292,323.273193 473.813965,323.138672 
	C470.794250,322.893097 469.671387,324.181885 469.719574,327.191223 
	C469.842285,334.848816 469.698517,342.510529 469.800232,350.168732 
	C469.821045,351.737793 470.447388,353.298828 471.692963,355.176422 
z"/>
<path fill="#06A7C0" opacity="1.000000" stroke="none" 
	d="
M213.583282,345.989716 
	C213.584457,337.340698 213.397934,329.182129 213.732208,321.044952 
	C213.804565,319.283447 215.748962,317.598907 216.831116,315.878937 
	C217.979965,317.563995 219.871017,319.145752 220.122940,320.955658 
	C220.645538,324.710175 220.356995,328.586945 220.287003,332.411346 
	C220.240982,334.926514 221.306961,335.823730 223.838577,336.011047 
	C234.969330,336.834595 234.963608,336.909332 234.967087,326.054657 
	C234.967560,324.557556 234.931656,323.059113 234.982208,321.563660 
	C235.066025,319.084015 234.736420,316.094025 238.353821,316.017548 
	C241.970963,315.941010 241.895035,318.880127 241.904663,321.398987 
	C241.945404,332.044922 241.933624,342.691071 241.925171,353.337158 
	C241.923584,355.331757 242.227905,357.438354 241.681610,359.283173 
	C241.288788,360.609741 239.716232,361.586975 238.669937,362.720032 
	C237.478699,361.571014 235.407013,360.524994 235.258347,359.254028 
	C234.778061,355.148071 234.881424,350.955841 235.001114,346.803802 
	C235.086319,343.847748 234.018600,342.618958 230.972321,342.639984 
	C217.951645,342.729980 220.575287,341.678680 220.290237,352.613007 
	C220.233902,354.773773 220.633682,357.054779 220.052750,359.056763 
	C219.641891,360.472656 217.931992,361.511627 216.802002,362.718842 
	C215.741714,361.466919 213.901535,360.293243 213.766632,358.948486 
	C213.353500,354.830200 213.595184,350.646240 213.583282,345.989716 
z"/>
<path fill="#07AAC3" opacity="1.000000" stroke="none" 
	d="
M70.491760,331.558014 
	C70.658455,332.911469 70.819824,333.821716 71.222359,336.092377 
	C75.532639,330.506958 79.116028,325.861877 82.701469,321.218353 
	C83.717178,319.902893 84.494987,318.174042 85.826668,317.397003 
	C87.153847,316.622559 89.039276,316.804840 90.679939,316.567657 
	C90.759430,318.208405 91.529282,320.306976 90.797859,321.410004 
	C87.772064,325.973083 84.452675,330.370483 80.920204,334.558014 
	C78.698029,337.192291 78.636749,339.224152 80.700424,341.980865 
	C84.183830,346.634064 87.501381,351.444336 90.437714,356.452972 
	C91.260429,357.856293 90.504059,360.185364 90.472031,362.089783 
	C88.682449,361.479340 86.192841,361.410919 85.226540,360.162964 
	C81.392326,355.211243 78.034195,349.890900 74.499626,344.707153 
	C73.977463,344.662262 73.455299,344.617371 72.933136,344.572449 
	C72.119148,346.837006 70.969078,349.045715 70.580978,351.381012 
	C70.149933,353.974823 70.803612,356.774506 70.216377,359.306274 
	C69.907074,360.639740 67.958954,361.593079 66.750778,362.718018 
	C65.781494,361.554474 63.986843,360.403198 63.969288,359.225433 
	C63.771091,345.927948 63.774254,332.625275 63.971291,319.327698 
	C63.988506,318.166016 65.760086,317.030304 66.716797,315.882538 
	C67.935555,316.971313 70.056686,317.949066 70.206818,319.169312 
	C70.690773,323.103088 70.448654,327.126190 70.491760,331.558014 
z"/>
<path fill="#07A9C2" opacity="1.000000" stroke="none" 
	d="
M414.733093,344.469238 
	C417.328583,336.155914 419.661865,328.174316 422.382782,320.327118 
	C422.978668,318.608521 424.955719,317.368835 426.296692,315.908630 
	C427.646240,317.349518 429.671509,318.565857 430.236694,320.267273 
	C434.217651,332.251068 437.911011,344.330627 441.664001,356.389648 
	C442.429535,358.849304 443.169891,361.871490 439.725037,362.347595 
	C438.411713,362.529053 436.463226,359.965485 435.224457,358.333862 
	C433.891235,356.577850 433.316040,353.008362 431.944824,352.755707 
	C428.127441,352.052490 424.017120,352.338165 420.140808,352.965088 
	C419.130890,353.128448 418.488159,355.939758 417.793518,357.584198 
	C416.791504,359.956299 416.428131,363.545532 412.814301,362.465454 
	C408.848297,361.280182 410.571136,357.952759 411.339996,355.318756 
	C412.364258,351.809692 413.514221,348.337372 414.733093,344.469238 
M424.828491,334.538269 
	C423.766174,337.951111 422.703857,341.363922 421.443268,345.413757 
	C425.016296,345.413757 427.680542,345.413757 431.247742,345.413757 
	C429.830902,341.012329 428.598083,337.141693 427.249420,333.311859 
	C427.224579,333.241394 425.820099,333.656830 424.828491,334.538269 
z"/>
<path fill="#07A9C2" opacity="1.000000" stroke="none" 
	d="
M268.902618,336.570740 
	C270.752899,330.638611 272.305267,325.018341 274.347351,319.582001 
	C274.917236,318.064911 276.812592,316.386444 278.330811,316.125488 
	C279.281982,315.962036 281.280334,318.103882 281.756012,319.556183 
	C285.842072,332.031433 289.797882,344.553467 293.459656,357.158234 
	C293.894257,358.654236 292.329468,360.731049 291.691467,362.538635 
	C290.160187,361.379028 288.288727,360.474030 287.182678,358.996155 
	C285.761414,357.097076 285.342743,353.279968 283.805176,352.870758 
	C280.243744,351.923035 276.264648,352.426849 272.466248,352.596130 
	C271.779297,352.626740 270.949890,353.767273 270.535126,354.574615 
	C269.934967,355.742737 269.665558,357.078644 269.232635,358.335297 
	C268.404053,360.740540 267.462494,363.737854 264.311523,362.242950 
	C263.128540,361.681671 262.400909,358.265778 262.847809,356.501434 
	C264.518433,349.906464 266.761536,343.456482 268.902618,336.570740 
M278.293457,345.845093 
	C279.985474,345.525970 282.975311,346.694122 282.195190,343.236877 
	C281.326721,339.388062 279.891144,335.667236 278.702484,331.890656 
	C278.258820,331.939392 277.815186,331.988129 277.371552,332.036865 
	C276.328644,335.287445 275.359253,338.564026 274.222260,341.781342 
	C273.086395,344.995331 274.439484,346.039062 278.293457,345.845093 
z"/>
<path fill="#07A9C2" opacity="1.000000" stroke="none" 
	d="
M541.647705,359.626373 
	C538.714905,363.671295 536.760376,363.545715 534.952332,359.600708 
	C533.876221,357.252838 533.268799,353.555054 531.529419,352.896271 
	C528.455627,351.732147 524.663208,352.212433 521.204712,352.462494 
	C520.082886,352.543579 518.728210,353.859253 518.080017,354.962708 
	C517.172791,356.507111 517.182739,358.651215 516.134155,360.033356 
	C515.220764,361.237335 513.383850,361.740631 511.955017,362.553528 
	C511.277679,361.044434 510.501587,359.568512 509.978210,358.007874 
	C509.801941,357.482239 510.244934,356.734283 510.443237,356.099915 
	C514.166504,344.190094 517.801147,332.250763 521.726868,320.407959 
	C522.302307,318.672119 524.267517,317.396973 525.589600,315.908630 
	C526.959656,317.316956 529.043823,318.494110 529.586365,320.170288 
	C533.785461,333.142822 537.686584,346.211823 541.647705,359.626373 
M523.161377,337.735107 
	C522.483643,340.088043 521.805969,342.441010 520.981140,345.304871 
	C524.331177,345.304871 527.091309,345.304871 530.541138,345.304871 
	C528.999207,340.304840 527.675720,336.013275 526.352234,331.721710 
	C525.956055,331.780579 525.559875,331.839447 525.163696,331.898315 
	C524.571045,333.602600 523.978394,335.306854 523.161377,337.735107 
z"/>
<path fill="#07A9C2" opacity="1.000000" stroke="none" 
	d="
M113.854919,354.509766 
	C117.433754,343.022186 120.799889,331.872162 124.490692,320.830688 
	C125.120689,318.945984 127.139534,317.525513 128.516754,315.890594 
	C129.936218,317.483704 132.042435,318.847534 132.663193,320.707245 
	C136.560440,332.382812 140.138184,344.165253 143.793961,355.920959 
	C144.591461,358.485443 145.747894,361.698181 141.976730,362.324371 
	C140.689987,362.538025 137.771713,359.659637 137.471451,357.878418 
	C136.357666,351.270599 131.712326,352.429138 127.281624,352.218628 
	C123.466698,352.037354 120.939049,352.792908 120.082733,357.045074 
	C119.557938,359.651062 118.973541,363.566467 115.099785,362.449799 
	C110.755943,361.197632 113.164886,357.631378 113.854919,354.509766 
M125.637512,339.151215 
	C125.088142,341.131317 124.538773,343.111450 123.923332,345.329712 
	C127.383301,345.329712 130.048767,345.329712 133.444550,345.329712 
	C131.909271,340.360687 130.586609,336.079834 129.263962,331.798981 
	C128.859619,331.837250 128.455276,331.875549 128.050934,331.913818 
	C127.319702,334.078003 126.588463,336.242218 125.637512,339.151215 
z"/>
<path fill="#10A2C3" opacity="1.000000" stroke="none" 
	d="
M255.787231,151.579056 
	C256.627960,150.703522 257.468658,149.827988 258.856262,149.089813 
	C262.676086,152.291534 265.949005,155.355881 269.221954,158.420227 
	C269.057617,169.980682 268.893280,181.541138 268.266663,193.536102 
	C266.018555,193.179428 264.291626,192.184631 262.432526,191.646744 
	C259.906647,190.915955 257.279663,190.534561 254.696014,190.003326 
	C254.634735,178.329178 254.573441,166.655014 254.834747,154.330048 
	C255.367310,152.979172 255.577286,152.279114 255.787231,151.579056 
z"/>
<path fill="#1387AC" opacity="1.000000" stroke="none" 
	d="
M269.556793,158.309631 
	C265.949005,155.355881 262.676086,152.291534 259.147430,148.985931 
	C269.276581,141.359619 279.661438,133.974564 290.506226,126.829468 
	C293.655823,130.399979 296.345398,133.730515 299.035004,137.061035 
	C299.035004,137.061035 299.245758,137.152878 298.953918,137.277466 
	C298.388580,137.882416 298.115112,138.362747 297.841644,138.843094 
	C297.720612,139.004593 297.599579,139.166092 297.017273,139.622391 
	C293.042084,142.443970 289.528198,144.970764 286.014282,147.497528 
	C280.640076,151.064697 275.265839,154.631866 269.556793,158.309631 
z"/>
<path fill="#1D83B0" opacity="1.000000" stroke="none" 
	d="
M299.388428,137.041290 
	C296.345398,133.730515 293.655823,130.399979 290.843628,126.697861 
	C299.390503,120.201714 308.059998,114.077148 317.441040,107.933838 
	C322.639801,109.649689 326.986023,111.536896 328.008423,117.021454 
	C318.586212,123.688148 309.164001,130.354843 299.388428,137.041290 
z"/>
<path fill="#07B2CB" opacity="1.000000" stroke="none" 
	d="
M268.500793,221.023743 
	C268.602051,229.342651 268.829071,237.662643 268.756866,245.980042 
	C268.714264,250.888000 265.766968,253.876389 261.580109,253.881531 
	C257.789276,253.886185 254.400314,250.375183 254.361984,245.911682 
	C254.276199,235.920486 254.399323,225.927490 254.929916,215.484100 
	C257.648193,215.866196 259.929688,216.577896 262.084137,217.566406 
	C264.287872,218.577515 266.367065,219.860031 268.500793,221.023743 
z"/>
<path fill="#109ABB" opacity="1.000000" stroke="none" 
	d="
M230.904709,79.393951 
	C238.711044,82.748482 246.891159,82.663986 255.167892,82.073250 
	C256.578217,81.972588 258.040405,82.598907 259.754913,83.118454 
	C258.046112,83.467377 256.062347,83.656311 254.075699,83.695358 
	C244.366470,83.886154 245.534256,82.358932 245.400223,92.613693 
	C245.311035,99.438309 245.274429,106.263596 244.696136,113.535019 
	C239.824036,112.652702 235.470093,111.323959 231.116150,109.995209 
	C231.014252,99.926758 230.912369,89.858307 230.904709,79.393951 
z"/>
<path fill="#1989B3" opacity="1.000000" stroke="none" 
	d="
M284.967377,115.902626 
	C278.629608,120.375473 272.389801,124.996689 265.918640,129.267441 
	C261.808777,131.979813 257.798737,131.034927 255.484543,127.389847 
	C253.355515,124.036453 254.087646,120.003281 257.767609,117.336311 
	C263.130066,113.449997 268.699066,109.848648 274.844971,106.140648 
	C279.444763,108.645432 284.079712,110.456062 284.967377,115.902626 
z"/>
<path fill="#2278AA" opacity="1.000000" stroke="none" 
	d="
M328.340088,116.925278 
	C326.986023,111.536896 322.639801,109.649689 317.751068,107.834221 
	C325.894104,101.679581 334.438629,95.605804 343.312805,89.398621 
	C346.406158,92.651985 349.169922,96.038757 351.991821,99.786163 
	C344.257233,105.707581 336.464478,111.268341 328.340088,116.925278 
z"/>
<path fill="#1D83B0" opacity="1.000000" stroke="none" 
	d="
M285.297363,115.813988 
	C284.079712,110.456062 279.444763,108.645432 275.171875,106.043564 
	C282.483490,100.608253 290.133148,95.284874 298.464508,89.986801 
	C302.471924,93.107498 305.797577,96.202911 309.123260,99.298325 
	C301.291290,104.773994 293.459320,110.249672 285.297363,115.813988 
z"/>
<path fill="#2278AA" opacity="1.000000" stroke="none" 
	d="
M309.462036,99.195602 
	C305.797577,96.202911 302.471924,93.107498 298.777100,89.885353 
	C306.639801,84.031029 314.871643,78.303444 323.439453,72.437927 
	C326.474121,75.889938 329.172852,79.479897 331.924469,83.406418 
	C324.585175,88.859627 317.192993,93.976257 309.462036,99.195602 
z"/>
<path fill="#1795BC" opacity="1.000000" stroke="none" 
	d="
M231.016327,110.455162 
	C235.470093,111.323959 239.824036,112.652702 244.579559,113.988747 
	C245.044861,123.689583 245.108597,133.383118 244.699280,143.485443 
	C239.858948,142.258469 235.491699,140.622696 231.124435,138.986938 
	C231.055130,129.629669 230.985825,120.272392 231.016327,110.455162 
z"/>
<path fill="#1989B3" opacity="1.000000" stroke="none" 
	d="
M293.946686,192.914215 
	C293.812805,193.997711 293.678925,195.081223 293.077240,196.556396 
	C288.239594,195.287338 283.869781,193.626602 279.499939,191.965866 
	C279.380432,186.159470 279.256195,180.353149 279.143188,174.546631 
	C279.073486,170.964752 280.082916,167.856186 283.638367,166.386932 
	C287.379974,164.840714 290.432678,166.165466 292.998657,169.994415 
	C293.454620,175.473755 293.741455,180.219666 293.973846,185.407135 
	C293.928497,188.203857 293.937592,190.559036 293.946686,192.914215 
z"/>
<path fill="#0BACC8" opacity="1.000000" stroke="none" 
	d="
M268.615479,220.565948 
	C266.367065,219.860031 264.287872,218.577515 262.084137,217.566406 
	C259.929688,216.577896 257.648193,215.866196 255.060638,215.034760 
	C254.615692,206.994904 254.532562,198.953247 254.572723,190.457458 
	C257.279663,190.534561 259.906647,190.915955 262.432526,191.646744 
	C264.291626,192.184631 266.018555,193.179428 268.150879,193.992722 
	C268.574982,202.712601 268.652588,211.410385 268.615479,220.565948 
z"/>
<path fill="#1989B3" opacity="1.000000" stroke="none" 
	d="
M231.019043,139.445465 
	C235.491699,140.622696 239.858948,142.258469 244.594147,143.943710 
	C245.055298,148.356277 245.148514,152.719360 245.165924,157.544983 
	C244.731201,161.705627 244.372299,165.403732 243.629181,169.510620 
	C239.495789,168.618027 235.746628,167.316650 231.991714,165.572083 
	C231.669632,162.107498 231.353302,159.086060 231.036987,156.064636 
	C230.995865,150.677750 230.954742,145.290863 231.019043,139.445465 
z"/>
<path fill="#2278AA" opacity="1.000000" stroke="none" 
	d="
M293.462280,241.517548 
	C288.925598,239.731888 284.486572,237.488388 279.755066,235.120605 
	C279.393311,227.963730 279.324036,220.931137 279.680603,213.522369 
	C284.514862,215.093872 288.923279,217.041565 293.331726,218.989258 
	C293.407806,226.346085 293.483887,233.702896 293.462280,241.517548 
z"/>
<path fill="#2181B1" opacity="1.000000" stroke="none" 
	d="
M293.437347,218.531952 
	C288.923279,217.041565 284.514862,215.093872 279.795227,213.065582 
	C279.413849,206.284790 279.343658,199.584579 279.386719,192.425125 
	C283.869781,193.626602 288.239594,195.287338 292.966553,196.950897 
	C293.396759,203.994019 293.469879,211.034317 293.437347,218.531952 
z"/>
<path fill="#2278AA" opacity="1.000000" stroke="none" 
	d="
M243.978088,193.981049 
	C243.981491,199.592773 244.030609,205.204941 243.976089,210.816101 
	C243.915710,217.027863 242.851288,217.680847 237.349945,215.202759 
	C235.555969,214.394669 233.672440,213.785355 231.464493,213.037018 
	C231.043152,205.629654 230.987213,198.270401 231.409912,190.470551 
	C235.918396,191.346985 239.948242,192.664017 243.978088,193.981049 
z"/>
<path fill="#2181B1" opacity="1.000000" stroke="none" 
	d="
M243.981934,193.514404 
	C239.948242,192.664017 235.918396,191.346985 231.507660,190.010010 
	C231.058792,186.945419 230.990814,183.900772 231.163696,180.036713 
	C231.602188,174.816620 231.799835,170.415939 231.997482,166.015259 
	C235.746628,167.316650 239.495789,168.618027 243.623383,169.967346 
	C243.996475,177.692749 243.991135,185.370255 243.981934,193.514404 
z"/>
<path fill="#04456C" opacity="1.000000" stroke="none" 
	d="
M286.163513,147.823425 
	C289.528198,144.970764 293.042084,142.443970 296.859985,139.881042 
	C298.455078,140.851227 300.061890,141.630310 300.979584,142.905365 
	C304.063293,147.189926 307.414062,147.418655 311.716003,144.344650 
	C314.750366,148.021347 317.348511,151.457779 319.946625,154.894211 
	C318.719574,155.839203 317.492493,156.784195 315.642273,157.773621 
	C313.355103,156.530441 311.691101,155.242828 309.839661,153.683777 
	C304.238708,147.282288 304.220703,147.259949 297.765900,152.459854 
	C296.353088,153.597992 295.118835,154.957718 293.802368,156.215408 
	C291.305817,153.526703 288.809265,150.837997 286.163513,147.823425 
z"/>
<path fill="#115D8F" opacity="1.000000" stroke="none" 
	d="
M303.050842,201.857056 
	C300.798798,199.451523 298.546783,197.045990 296.238831,194.022766 
	C298.484131,189.164810 300.785309,184.924530 303.086517,180.684265 
	C305.909576,183.622238 308.732666,186.560196 311.405762,189.965546 
	C308.520782,194.240982 305.785797,198.049026 303.050842,201.857056 
z"/>
<path fill="#0582A1" opacity="1.000000" stroke="none" 
	d="
M318.029327,182.913376 
	C315.449341,180.143295 312.869354,177.373215 310.372284,174.056076 
	C313.732117,170.616547 317.009033,167.724045 320.285950,164.831543 
	C322.732513,167.371017 325.179108,169.910492 327.455933,172.915070 
	C323.672668,176.045334 318.820953,177.508163 318.029327,182.913376 
z"/>
<path fill="#046789" opacity="1.000000" stroke="none" 
	d="
M310.027100,153.955215 
	C311.691101,155.242828 313.355103,156.530441 315.321716,157.886902 
	C316.289093,159.113464 316.953857,160.271179 317.382324,161.755341 
	C312.292358,163.286713 308.300964,165.484940 307.052856,170.843353 
	C304.803040,168.435043 302.553192,166.026749 300.200317,162.972565 
	C303.407227,159.536179 306.717163,156.745697 310.027100,153.955215 
z"/>
<path fill="#156FA1" opacity="1.000000" stroke="none" 
	d="
M303.205994,202.153046 
	C305.785797,198.049026 308.520782,194.240982 311.530579,190.271515 
	C313.128204,191.523117 314.451019,192.936172 315.890869,194.650696 
	C313.713165,199.123367 311.418488,203.294556 309.018555,207.815308 
	C307.062561,206.259598 305.211823,204.354309 303.205994,202.153046 
z"/>
<path fill="#046789" opacity="1.000000" stroke="none" 
	d="
M317.053986,140.215622 
	C318.820282,138.865982 320.586548,137.516342 322.785980,136.406876 
	C325.524811,140.321579 327.830475,143.996094 330.136169,147.670624 
	C328.402679,148.954926 326.669159,150.239197 324.429077,151.283463 
	C321.632996,147.434158 319.343506,143.824890 317.053986,140.215622 
z"/>
<path fill="#04587C" opacity="1.000000" stroke="none" 
	d="
M309.839661,153.683777 
	C306.717163,156.745697 303.407227,159.536179 300.038391,162.683060 
	C298.055908,160.937759 296.132324,158.836060 294.005554,156.474884 
	C295.118835,154.957718 296.353088,153.597992 297.765900,152.459854 
	C304.220703,147.259949 304.238708,147.282288 309.839661,153.683777 
z"/>
<path fill="#06A5BF" opacity="1.000000" stroke="none" 
	d="
M335.956970,182.479416 
	C332.824707,185.493332 329.569885,188.202652 325.959778,191.012985 
	C323.838013,189.273178 322.071533,187.432373 320.537506,185.255890 
	C325.080139,183.058014 329.290955,181.095398 330.096680,175.691513 
	C332.009247,177.852615 333.921783,180.013718 335.956970,182.479416 
z"/>
<path fill="#0582A1" opacity="1.000000" stroke="none" 
	d="
M327.791107,132.506760 
	C329.298126,131.353989 330.805145,130.201218 332.726807,129.283890 
	C336.221863,132.751297 339.302246,135.983276 342.382599,139.215271 
	C340.653137,140.499878 338.923706,141.784485 336.547302,143.010223 
	C333.197296,139.469833 330.494202,135.988297 327.791107,132.506760 
z"/>
<path fill="#04587C" opacity="1.000000" stroke="none" 
	d="
M316.748352,140.309570 
	C319.343506,143.824890 321.632996,147.434158 324.104645,151.398315 
	C323.031433,152.725586 321.776062,153.697983 320.233643,154.782288 
	C317.348511,151.457779 314.750366,148.021347 312.046265,144.239761 
	C313.441101,142.730911 314.941895,141.567215 316.748352,140.309570 
z"/>
<path fill="#0696B2" opacity="1.000000" stroke="none" 
	d="
M330.019958,175.406754 
	C329.290955,181.095398 325.080139,183.058014 320.416656,184.953918 
	C319.469757,184.477493 318.876129,183.967377 318.155945,183.185303 
	C318.820953,177.508163 323.672668,176.045334 327.578186,173.224930 
	C328.561249,173.753799 329.252258,174.437897 330.019958,175.406754 
z"/>
<path fill="#057998" opacity="1.000000" stroke="none" 
	d="
M327.466980,132.601318 
	C330.494202,135.988297 333.197296,139.469833 336.244690,143.116333 
	C334.665649,144.664307 332.742310,146.047302 330.477570,147.550461 
	C327.830475,143.996094 325.524811,140.321579 323.107483,136.318314 
	C324.378204,134.891678 325.760529,133.793777 327.466980,132.601318 
z"/>
<path fill="#06A5BF" opacity="1.000000" stroke="none" 
	d="
M340.745911,123.217285 
	C343.839722,126.579819 346.619232,130.024124 349.665466,133.647537 
	C348.222137,134.936722 346.512085,136.046814 344.264862,136.890411 
	C341.092773,133.391205 338.457825,130.158478 335.822876,126.925743 
	C337.359131,125.716850 338.895386,124.507957 340.745911,123.217285 
z"/>
<path fill="#057998" opacity="1.000000" stroke="none" 
	d="
M307.193481,171.124481 
	C308.300964,165.484940 312.292358,163.286713 317.513519,162.061050 
	C318.606842,162.776505 319.332672,163.512695 320.172211,164.540222 
	C317.009033,167.724045 313.732117,170.616547 310.229736,173.753601 
	C309.114227,173.133972 308.224182,172.269806 307.193481,171.124481 
z"/>
<path fill="#04456C" opacity="1.000000" stroke="none" 
	d="
M294.028320,184.965591 
	C293.741455,180.219666 293.454620,175.473755 293.197021,170.293198 
	C296.345184,173.049606 299.464111,176.240631 302.392029,179.773590 
	C299.476807,181.732193 296.752563,183.348892 294.028320,184.965591 
z"/>
<path fill="#0696B2" opacity="1.000000" stroke="none" 
	d="
M335.530579,126.974442 
	C338.457825,130.158478 341.092773,133.391205 343.912628,136.919968 
	C343.705902,137.819595 343.314270,138.423203 342.652618,139.121033 
	C339.302246,135.983276 336.221863,132.751297 333.033813,129.176849 
	C333.696899,128.230621 334.467590,127.626884 335.530579,126.974442 
z"/>
<path fill="#124E7E" opacity="1.000000" stroke="none" 
	d="
M293.973877,185.407135 
	C296.752563,183.348892 299.476807,181.732193 302.544586,180.065063 
	C302.888123,180.014618 303.042633,180.333878 303.064575,180.509064 
	C300.785309,184.924530 298.484131,189.164810 296.068176,193.739243 
	C295.447540,193.791595 294.941620,193.509781 294.191223,193.071091 
	C293.937592,190.559036 293.928497,188.203857 293.973877,185.407135 
z"/>
<path fill="#266DA3" opacity="1.000000" stroke="none" 
	d="
M231.991714,165.572083 
	C231.799835,170.415939 231.602188,174.816620 231.234100,179.583862 
	C230.980988,172.243881 230.898315,164.537308 230.926300,156.447693 
	C231.353302,159.086060 231.669632,162.107498 231.991714,165.572083 
z"/>
<path fill="#109ABB" opacity="1.000000" stroke="none" 
	d="
M294.855591,76.697128 
	C294.593933,76.242043 294.454681,75.577019 294.342499,74.567368 
	C294.572388,74.977554 294.775208,75.732368 294.855591,76.697128 
z"/>
<path fill="#1387AC" opacity="1.000000" stroke="none" 
	d="
M255.542694,151.741852 
	C255.577286,152.279114 255.367310,152.979172 254.969131,153.885254 
	C254.953323,153.362427 255.125732,152.633545 255.542694,151.741852 
z"/>
<path fill="#04456C" opacity="1.000000" stroke="none" 
	d="
M298.071777,138.724152 
	C298.115112,138.362747 298.388580,137.882416 298.950348,137.392365 
	C298.926392,137.790176 298.614166,138.197678 298.071777,138.724152 
z"/>
<path fill="#02092F" opacity="1.000000" stroke="none" 
	d="
M471.243774,355.019989 
	C470.447388,353.298828 469.821045,351.737793 469.800232,350.168732 
	C469.698517,342.510529 469.842285,334.848816 469.719574,327.191223 
	C469.671387,324.181885 470.794250,322.893097 473.813965,323.138672 
	C475.468292,323.273193 477.143219,323.201965 478.807220,323.159454 
	C482.919830,323.054504 485.106781,325.138489 485.183655,329.143066 
	C485.308258,335.634003 485.310242,342.131378 485.170532,348.621857 
	C485.075836,353.022705 482.656525,355.331146 478.180817,355.298584 
	C476.018036,355.282837 473.855560,355.218658 471.243774,355.019989 
z"/>
<path fill="#032043" opacity="1.000000" stroke="none" 
	d="
M424.943909,334.191895 
	C425.820099,333.656830 427.224579,333.241394 427.249420,333.311859 
	C428.598083,337.141693 429.830902,341.012329 431.247742,345.413757 
	C427.680542,345.413757 425.016296,345.413757 421.443268,345.413757 
	C422.703857,341.363922 423.766174,337.951111 424.943909,334.191895 
z"/>
<path fill="#032043" opacity="1.000000" stroke="none" 
	d="
M277.877930,345.842743 
	C274.439484,346.039062 273.086395,344.995331 274.222260,341.781342 
	C275.359253,338.564026 276.328644,335.287445 277.371552,332.036865 
	C277.815186,331.988129 278.258820,331.939392 278.702484,331.890656 
	C279.891144,335.667236 281.326721,339.388062 282.195190,343.236877 
	C282.975311,346.694122 279.985474,345.525970 277.877930,345.842743 
z"/>
<path fill="#032043" opacity="1.000000" stroke="none" 
	d="
M523.273560,337.373108 
	C523.978394,335.306854 524.571045,333.602600 525.163696,331.898315 
	C525.559875,331.839447 525.956055,331.780579 526.352234,331.721710 
	C527.675720,336.013275 528.999207,340.304840 530.541138,345.304871 
	C527.091309,345.304871 524.331177,345.304871 520.981140,345.304871 
	C521.805969,342.441010 522.483643,340.088043 523.273560,337.373108 
z"/>
<path fill="#032043" opacity="1.000000" stroke="none" 
	d="
M125.747375,338.778809 
	C126.588463,336.242218 127.319702,334.078003 128.050934,331.913818 
	C128.455276,331.875549 128.859619,331.837250 129.263962,331.798981 
	C130.586609,336.079834 131.909271,340.360687 133.444550,345.329712 
	C130.048767,345.329712 127.383301,345.329712 123.923332,345.329712 
	C124.538773,343.111450 125.088142,341.131317 125.747375,338.778809 
z"/>
</svg>